<?xml version="1.0" encoding="UTF-8"?>
<svg version="1.1" xmlns="http://www.w3.org/2000/svg" width="630" height="630">
<path d="M0 0 C207.9 0 415.8 0 630 0 C630 207.9 630 415.8 630 630 C422.1 630 214.2 630 0 630 C0 422.1 0 214.2 0 0 Z " fill="#6900FE" transform="translate(0,0)"/>
<path d="M0 0 C0.79841309 0.00418945 1.59682617 0.00837891 2.41943359 0.01269531 C11.80835598 0.19218661 19.03985561 2.90334838 27.25 7.3125 C27.25 7.9725 27.25 8.6325 27.25 9.3125 C27.806875 9.539375 28.36375 9.76625 28.9375 10 C31.91159588 11.68800036 33.97008865 13.77926517 36.25 16.3125 C36.25 16.9725 36.25 17.6325 36.25 18.3125 C36.91 18.3125 37.57 18.3125 38.25 18.3125 C46.19738953 32.79371174 49.12441778 48.13304982 44.6875 64.3125 C40.9523947 74.80258297 33.97389892 82.60180852 25.25 89.3125 C24.34701172 90.06080078 24.34701172 90.06080078 23.42578125 90.82421875 C14.58477948 96.87165443 0.42242415 96.58800842 -9.78125 94.7734375 C-15.04039092 93.33192598 -19.83596939 91.22653061 -23.75 87.3125 C-24.08 99.8525 -24.41 112.3925 -24.75 125.3125 C-28.483125 126.6325 -32.21625 127.9525 -36.0625 129.3125 C-37.82267456 129.93898438 -37.82267456 129.93898438 -39.6184082 130.578125 C-40.54484131 130.90296875 -41.47127441 131.2278125 -42.42578125 131.5625 C-43.37364502 131.89765625 -44.32150879 132.2328125 -45.2980957 132.578125 C-47.75 133.3125 -47.75 133.3125 -50.75 133.3125 C-50.75 91.7325 -50.75 50.1525 -50.75 7.3125 C-30.75 1.3125 -30.75 1.3125 -26.75 1.3125 C-26.75 4.9425 -26.75 8.5725 -26.75 12.3125 C-26.09 12.3125 -25.43 12.3125 -24.75 12.3125 C-24.523125 11.735 -24.29625 11.1575 -24.0625 10.5625 C-22.39018419 7.6956729 -20.47780269 6.17538964 -17.75 4.3125 C-16.76 4.3125 -15.77 4.3125 -14.75 4.3125 C-14.75 3.6525 -14.75 2.9925 -14.75 2.3125 C-9.70969737 0.29798414 -5.34261118 -0.03807352 0 0 Z " fill="#FCFBFD" transform="translate(353.75,267.6875)"/>
<path d="M0 0 C2.12109375 1.953125 2.12109375 1.953125 4 4 C6.01392699 5.7626693 8.05295773 7.49194127 10.09765625 9.21875 C12.02490572 11.02332034 13.5497593 12.7952727 15 15 C15 15.66 15 16.32 15 17 C16.485 17.495 16.485 17.495 18 18 C24.13409319 28.79671315 25.75602251 42.76050358 22.72265625 54.7734375 C18.86196369 66.66854432 12.16123389 76.58504554 2 84 C1.34 84 0.68 84 0 84 C0 84.66 0 85.32 0 86 C-14.17958835 91.40910727 -29.53116376 94.29819931 -44 88 C-46.02717912 87.05631317 -48.04290043 86.08155503 -50 85 C-50 84.34 -50 83.68 -50 83 C-51.0209375 82.7215625 -51.0209375 82.7215625 -52.0625 82.4375 C-56.21777285 80.4040686 -58.90142694 77.38093703 -62 74 C-62.70125 73.2575 -63.4025 72.515 -64.125 71.75 C-71.64235329 60.72454851 -74.15095594 49.17984912 -73 36 C-71.38424398 28.51255328 -68.67728195 21.6979064 -65 15 C-64.34 15 -63.68 15 -63 15 C-62.73960937 14.41605469 -62.47921875 13.83210938 -62.2109375 13.23046875 C-60.92216506 10.85663306 -59.5249146 9.22485946 -57.625 7.3125 C-57.03976563 6.71050781 -56.45453125 6.10851562 -55.8515625 5.48828125 C-53.87391086 3.89864987 -52.4785821 3.4094574 -50 3 C-50 2.34 -50 1.68 -50 1 C-46.91190305 -0.76462683 -45.76687864 -1 -42 -1 C-42 -1.66 -42 -2.32 -42 -3 C-28.25636533 -6.93352303 -12.79895853 -6.90852875 0 0 Z " fill="#FCFBFC" transform="translate(269,273)"/>
<path d="M0 0 C0.66128906 0.51046875 1.32257813 1.0209375 2.00390625 1.546875 C5.45288083 4.34061641 8.07096316 6.91498081 10 11 C10 11.66 10 12.32 10 13 C10.66 13 11.32 13 12 13 C12 14.32 12 15.64 12 17 C12.66 17 13.32 17 14 17 C14.84761822 18.70129086 15.6774868 20.41143084 16.5 22.125 C16.9640625 23.07632813 17.428125 24.02765625 17.90625 25.0078125 C19.07748116 28.21196631 19.20076124 30.61717313 19 34 C17.88625 34.29132813 16.7725 34.58265625 15.625 34.8828125 C7.40968429 37.07326076 -0.58616142 39.45637579 -8.51098633 42.54833984 C-15.86402112 45.393334 -23.35055822 47.82707741 -30.84033203 50.28442383 C-31.82501465 50.60822021 -32.80969727 50.9320166 -33.82421875 51.265625 C-34.70166748 51.55211914 -35.57911621 51.83861328 -36.4831543 52.13378906 C-39.03414527 52.97649435 -39.03414527 52.97649435 -41.57348633 54.10839844 C-44 55 -44 55 -48 55 C-46.84031651 58.47905046 -46.16252073 58.81138872 -43.125 60.625 C-42.42632812 61.05039062 -41.72765625 61.47578125 -41.0078125 61.9140625 C-33.12009332 66.18018299 -23.30470303 64.0176285 -15 62 C-15 61.34 -15 60.68 -15 60 C-13.5390625 58.59765625 -13.5390625 58.59765625 -11.625 57.0625 C-9.16098476 55.08013383 -7.79533563 53.69300345 -6 51 C1.4071181 51.62272232 8.68194135 52.70487966 16 54 C15.67272241 59.34553395 14.51101151 62.24792754 11.15625 66.421875 C9.79161637 68.11581691 9.79161637 68.11581691 9 71 C-3.21644601 82.65477033 -16.62361435 87.90531608 -33.47338867 87.64550781 C-46.69411505 87.01647187 -56.47945017 81.10891121 -65.25 71.5 C-76.15531229 58.71666915 -78.11705142 45.92336406 -77.26513672 29.48535156 C-76.19088962 19.41552144 -70.13473229 9.97404012 -63 3 C-62.34 3 -61.68 3 -61 3 C-61 2.34 -61 1.68 -61 1 C-59.68 0.67 -58.36 0.34 -57 0 C-57 -0.66 -57 -1.32 -57 -2 C-39.23926702 -11.71463892 -16.54072895 -13.08019257 0 0 Z " fill="#FCFAFC" transform="translate(524,277)"/>
<path d="M0 0 C0.33 13.86 0.66 27.72 1 42 C2.98 40.35 4.96 38.7 7 37 C12.76663855 33.09799758 18.01188131 32.3498652 24.875 32.5 C26.19781982 32.51812744 26.19781982 32.51812744 27.54736328 32.53662109 C35.9349653 32.79257714 42.37958667 34.28066826 48.625 40.125 C51 43 51 43 51 45 C51.66 45 52.32 45 53 45 C53.495 47.97 53.495 47.97 54 51 C54.66 51 55.32 51 56 51 C58.6463042 60.48244939 59.40891888 69.23378303 59.29296875 79.05078125 C59.28735503 80.44467201 59.28309337 81.83856879 59.28010559 83.23246765 C59.26879614 86.85416784 59.23945399 90.4754917 59.20599365 94.0970459 C59.17498791 97.81139031 59.16153594 101.52579712 59.14648438 105.24023438 C59.1145665 112.49367886 59.0619177 119.7467382 59 127 C50.42 127 41.84 127 33 127 C32.99742187 122.84535156 32.99484375 118.69070313 32.9921875 114.41015625 C32.97334537 111.07634899 32.94853137 107.74270388 32.91970825 104.40897369 C32.89100608 100.90129395 32.87258046 97.39427988 32.87988281 93.88647461 C32.88779218 89.85206512 32.84732534 85.81935065 32.8046875 81.78515625 C32.81378143 80.54105484 32.82287537 79.29695343 32.83224487 78.01515198 C32.70461387 70.31495597 31.59721807 64.6135177 26 59 C22.83990467 57.94663489 20.4446864 57.79967112 17.125 57.75 C16.09632813 57.72421875 15.06765625 57.6984375 14.0078125 57.671875 C10.61108707 58.04242686 8.81667866 59.13529984 6 61 C5.34 61 4.68 61 4 61 C2.07402791 65.75073116 0.87285428 69.51631093 0.79467773 74.66479492 C0.77473251 75.82577194 0.75478729 76.98674896 0.73423767 78.1829071 C0.70916893 80.06270012 0.70916893 80.06270012 0.68359375 81.98046875 C0.66281265 83.26359451 0.64203156 84.54672028 0.62062073 85.86872864 C0.56548094 89.27662815 0.51603611 92.68458741 0.46777344 96.09259033 C0.41749921 99.57154638 0.36189605 103.05041696 0.30664062 106.52929688 C0.19865448 113.35279898 0.09956895 120.17634905 0 127 C-8.58 127 -17.16 127 -26 127 C-26 87.73 -26 48.46 -26 8 C-5 0 -5 0 0 0 Z " fill="#FAF7FD" transform="translate(128,235)"/>
<path d="M0 0 C0.83273438 0.49242187 1.66546875 0.98484375 2.5234375 1.4921875 C4.74857671 3.22101313 5.60317061 4.5311254 6.625 7.125 C7.285 7.125 7.945 7.125 8.625 7.125 C9.46569415 8.72532137 10.29731505 10.33041171 11.125 11.9375 C11.82109375 13.27748047 11.82109375 13.27748047 12.53125 14.64453125 C13.625 17.125 13.625 17.125 13.625 20.125 C7.12988471 23.1560538 -0.13378427 26.125 -7.375 26.125 C-7.766875 25.196875 -8.15875 24.26875 -8.5625 23.3125 C-11.05592157 18.92751725 -13.69708061 17.68430646 -18.375 16.125 C-20.26970816 16.0564505 -22.1666834 16.04019628 -24.0625 16.0625 C-25.05636719 16.07152344 -26.05023438 16.08054687 -27.07421875 16.08984375 C-27.83347656 16.10144531 -28.59273437 16.11304688 -29.375 16.125 C-29.375 16.785 -29.375 17.445 -29.375 18.125 C-30.365 18.785 -31.355 19.445 -32.375 20.125 C-32.69345551 23.22994126 -32.36924641 25.14226077 -31.375 28.125 C-28.99188627 28.93163952 -26.75907916 29.5307711 -24.3125 30.0625 C-23.59876221 30.23233398 -22.88502441 30.40216797 -22.1496582 30.57714844 C-18.49187954 31.44459315 -14.82472054 32.24129555 -11.140625 32.98828125 C-0.59214062 35.21877569 8.51274147 38.9128555 14.8125 48.1875 C18.46694108 55.89650344 17.82524414 65.69378964 15.125 73.625 C11.11105835 82.08796089 3.08744494 86.78419792 -5.375 90.125 C-16.64480301 93.28135416 -31.12919033 92.54869709 -41.7109375 87.66796875 C-48.9829192 83.45619049 -54.654121 77.73213041 -58.375 70.125 C-58.75 66.5625 -58.75 66.5625 -58.375 64.125 C-57.75753906 63.94324219 -57.14007813 63.76148438 -56.50390625 63.57421875 C-51.35793107 62.04687452 -46.25705422 60.44107245 -41.1875 58.67578125 C-39.375 58.125 -39.375 58.125 -37.375 58.125 C-35.9375 60.05859375 -35.9375 60.05859375 -34.375 62.5625 C-32.4220084 65.93506651 -32.4220084 65.93506651 -29.375 68.125 C-29.375 68.785 -29.375 69.445 -29.375 70.125 C-23.435 70.125 -17.495 70.125 -11.375 70.125 C-11.375 69.465 -11.375 68.805 -11.375 68.125 C-10.385 67.465 -9.395 66.805 -8.375 66.125 C-8.10471626 62.40859861 -8.194067 59.667799 -9.375 56.125 C-10.1690625 55.99351562 -10.963125 55.86203125 -11.78125 55.7265625 C-12.9671875 55.52804687 -14.153125 55.32953125 -15.375 55.125 C-16.08269531 55.01124023 -16.79039063 54.89748047 -17.51953125 54.78027344 C-29.25644193 52.85206668 -39.07501175 50.195854 -49.375 44.125 C-49.375 43.465 -49.375 42.805 -49.375 42.125 C-50.035 42.125 -50.695 42.125 -51.375 42.125 C-56.7010999 34.21510759 -58.83961305 27.66899489 -57.375 18.125 C-56.3389694 14.92393109 -55.05924694 12.03483734 -53.375 9.125 C-52.715 9.125 -52.055 9.125 -51.375 9.125 C-51.23191406 8.2278125 -51.23191406 8.2278125 -51.0859375 7.3125 C-49.52038989 2.49543042 -44.2620152 0.15027826 -40.03125 -2.1484375 C-28.04759328 -7.36354737 -11.22719484 -6.83548456 0 0 Z " fill="#FBF9FC" transform="translate(74.375,272.875)"/>
<path d="M0 0 C0.67667725 -0.01015137 1.35335449 -0.02030273 2.05053711 -0.03076172 C7.09487726 0.0561569 10.55920727 1.25757961 15 3.4375 C14.42519779 8.77000241 13.16841431 13.33809483 11.1875 18.3125 C10.93935547 18.98796875 10.69121094 19.6634375 10.43554688 20.359375 C8.5425057 25.15700607 8.5425057 25.15700607 6.05078125 26.4453125 C3.84731174 26.43691833 2.12771311 26.00048978 0 25.4375 C-2.08234592 25.37006652 -4.16668557 25.35235528 -6.25 25.375 C-7.32765625 25.38402344 -8.4053125 25.39304687 -9.515625 25.40234375 C-10.74539063 25.41974609 -10.74539063 25.41974609 -12 25.4375 C-12 26.0975 -12 26.7575 -12 27.4375 C-12.61875 27.499375 -13.2375 27.56125 -13.875 27.625 C-16.19689918 28.24551028 -16.19689918 28.24551028 -17.125 30.5625 C-17.41375 31.51125 -17.7025 32.46 -18 33.4375 C-18.33950684 34.39406494 -18.67901367 35.35062988 -19.02880859 36.33618164 C-20.56378091 41.75914354 -20.35762162 47.33868815 -20.4140625 52.93359375 C-20.43342865 54.12227554 -20.4527948 55.31095734 -20.4727478 56.53565979 C-20.53231089 60.3153679 -20.5788363 64.09510684 -20.625 67.875 C-20.66320114 70.44467441 -20.70225411 73.0143363 -20.7421875 75.58398438 C-20.83958919 81.86842281 -20.91934446 88.15273524 -21 94.4375 C-29.58 94.4375 -38.16 94.4375 -47 94.4375 C-47.02254978 82.58984487 -47.04091436 70.74220389 -47.05181217 58.8945322 C-47.05704131 53.39379138 -47.06413951 47.89306595 -47.07543945 42.39233398 C-47.08626725 37.0885344 -47.0922766 31.78474965 -47.09487724 26.48093987 C-47.09673169 24.45264388 -47.10035267 22.42434874 -47.10573006 20.39605904 C-47.11293906 17.56553486 -47.113991 14.73507282 -47.11352539 11.90454102 C-47.11712067 11.05721909 -47.12071594 10.20989716 -47.12442017 9.3368988 C-47.11405216 3.55155216 -47.11405216 3.55155216 -46 2.4375 C-44.43827255 2.35064397 -42.87270656 2.33047781 -41.30859375 2.33984375 C-40.36435547 2.34306641 -39.42011719 2.34628906 -38.44726562 2.34960938 C-37.45404297 2.35798828 -36.46082031 2.36636719 -35.4375 2.375 C-34.44041016 2.37951172 -33.44332031 2.38402344 -32.41601562 2.38867188 C-29.94395151 2.40049993 -27.47200482 2.41698151 -25 2.4375 C-24.01 5.0775 -23.02 7.7175 -22 10.4375 C-20.989375 9.53 -19.97875 8.6225 -18.9375 7.6875 C-12.41900246 2.25112458 -8.62210032 0.0923621 0 0 Z " fill="#FBF9FD" transform="translate(599,267.5625)"/>
<path d="M0 0 C8.58 0 17.16 0 26 0 C26.02254978 11.84765513 26.04091436 23.69529611 26.05181217 35.5429678 C26.05704131 41.04370862 26.06413951 46.54443405 26.07543945 52.04516602 C26.08626725 57.3489656 26.0922766 62.65275035 26.09487724 67.95656013 C26.09673169 69.98485612 26.10035267 72.01315126 26.10573006 74.04144096 C26.11293906 76.87196514 26.113991 79.70242718 26.11352539 82.53295898 C26.11712067 83.38028091 26.12071594 84.22760284 26.12442017 85.1006012 C26.11405216 90.88594784 26.11405216 90.88594784 25 92 C16.75 92 8.5 92 0 92 C0 61.64 0 31.28 0 0 Z " fill="#FBF9FE" transform="translate(411,270)"/>
<path d="M0 0 C0 0.66 0 1.32 0 2 C1.051875 2.3403125 1.051875 2.3403125 2.125 2.6875 C7.86247338 5.30678133 10.88257457 8.0790408 13.375 13.8125 C15.62783795 20.21131703 15.95582936 25.14295806 13.375 31.5625 C10.3542327 37.74279775 6.32424569 43.00430467 0 46 C-6.35787629 47.95733746 -14.17539876 48.22626611 -20.3125 45.5 C-26.76556289 41.70091079 -31.0990572 36.20923591 -33 29 C-33.81162773 21.39334942 -33.88542219 14.20543877 -29 8 C-20.34330727 -1.10850342 -12.18147537 -2.56452113 0 0 Z " fill="#6A05FD" transform="translate(363,293)"/>
<path d="M0 0 C1.37671875 -0.02126953 1.37671875 -0.02126953 2.78125 -0.04296875 C5.69552633 0.20407479 7.85358797 0.97456115 10.5 2.1875 C10.5 2.8475 10.5 3.5075 10.5 4.1875 C11.09554687 4.28675781 11.69109375 4.38601563 12.3046875 4.48828125 C16.20009569 5.72898955 18.20301887 8.94470311 20.5 12.1875 C23.5081983 18.06716032 23.54419356 25.98023837 21.96484375 32.34375 C20.45728971 36.10027809 18.25943464 39.25003732 15.5 42.1875 C14.84 42.1875 14.18 42.1875 13.5 42.1875 C13.5 42.8475 13.5 43.5075 13.5 44.1875 C5.53427769 47.57974676 -1.9948264 50.02255787 -10.5 47.1875 C-10.5 46.5275 -10.5 45.8675 -10.5 45.1875 C-11.799375 44.9090625 -11.799375 44.9090625 -13.125 44.625 C-18.41248188 42.37292438 -21.47607437 38.68114201 -23.6484375 33.390625 C-25.437534 26.66099598 -25.86654676 19.02181921 -22.8125 12.6875 C-21.6678125 11.45 -21.6678125 11.45 -20.5 10.1875 C-20.10296875 9.66800781 -19.7059375 9.14851563 -19.296875 8.61328125 C-13.98758671 1.67424308 -8.44228194 0.05928569 0 0 Z " fill="#6903FD" transform="translate(245.5,291.8125)"/>
<path d="M0 0 C4.48128676 2.52790535 8.77832256 5.39746768 10.4375 10.375 C10.84735226 15.91277122 10.96430374 21.32139251 8.4375 26.375 C4.10665767 30.58879254 0.05622722 32.45384623 -5.9375 32.6875 C-10.44743656 32.53766822 -13.68101742 31.83824856 -17.5625 29.375 C-21.71775002 24.38869997 -23.41429052 19.19738088 -23.04296875 12.734375 C-22.08008198 8.00605295 -19.62465145 5.06175981 -15.953125 2.05859375 C-10.77994142 -1.34668994 -6.00165901 -1.46381927 0 0 Z " fill="#FAF7FC" transform="translate(429.5625,229.625)"/>
<path d="M0 0 C0 0.66 0 1.32 0 2 C2.475 2.99 2.475 2.99 5 4 C5 4.66 5 5.32 5 6 C3.04362971 6.77580201 1.08477397 7.54533675 -0.875 8.3125 C-1.96554687 8.74175781 -3.05609375 9.17101562 -4.1796875 9.61328125 C-7.85428315 10.99791865 -11.59808805 12.08729976 -15.36376953 13.19458008 C-20.70704765 14.82705595 -25.945965 16.7703357 -31.203125 18.65820312 C-32.05390625 18.96048828 -32.9046875 19.26277344 -33.78125 19.57421875 C-34.54501953 19.84838623 -35.30878906 20.12255371 -36.09570312 20.4050293 C-38 21 -38 21 -40 21 C-39.39465733 13.73588791 -37.24587351 7.80503042 -31.875 2.6875 C-22.02455916 -5.05363873 -11.06123937 -3.80796765 0 0 Z " fill="#6A08FB" transform="translate(509,293)"/>
<path d="M0 0 C-0.66 0.33 -1.32 0.66 -2 1 C-2 1.66 -2 2.32 -2 3 C-3.43503555 3.36402369 -4.87316506 3.71586591 -6.3125 4.0625 C-7.51326172 4.35833984 -7.51326172 4.35833984 -8.73828125 4.66015625 C-11 5 -11 5 -14 4 C-14 4.66 -14 5.32 -14 6 C-10.7 6.33 -7.4 6.66 -4 7 C-4.33 8.98 -4.66 10.96 -5 13 C-3.68 12.67 -2.36 12.34 -1 12 C-2.375 14 -2.375 14 -4 16 C-4.66 16 -5.32 16 -6 16 C-6 16.66 -6 17.32 -6 18 C-12.26219681 21.61280585 -19.94868915 21.74013759 -27 21 C-29.93059381 20.0150084 -32.41345526 18.67973259 -35 17 C-35.825 16.484375 -36.65 15.96875 -37.5 15.4375 C-37.995 14.963125 -38.49 14.48875 -39 14 C-39 13.01 -39 12.02 -39 11 C-33.22287789 8.96366376 -27.44121233 6.94077438 -21.65576172 4.92822266 C-19.25802322 4.09018241 -16.86497143 3.24008 -14.47265625 2.38671875 C-13.14863343 1.92391826 -11.82442716 1.4616421 -10.5 1 C-9.3346875 0.5875 -8.169375 0.175 -6.96875 -0.25 C-4.07321476 -0.98150364 -2.73594736 -1.07292053 0 0 Z " fill="#6D0DFA" transform="translate(515,321)"/>
<path d="M0 0 C3.42926839 1.9124766 5.17872317 3.49845707 7.25 6.8125 C7.25 7.8025 7.25 8.7925 7.25 9.8125 C9.89 9.1525 12.53 8.4925 15.25 7.8125 C15.25 8.8025 15.25 9.7925 15.25 10.8125 C16.9 10.8125 18.55 10.8125 20.25 10.8125 C20.25 11.4725 20.25 12.1325 20.25 12.8125 C19.486875 12.93625 18.72375 13.06 17.9375 13.1875 C15.04732864 13.69352792 15.04732864 13.69352792 12.25 15.8125 C11.59 15.8125 10.93 15.8125 10.25 15.8125 C10.25 16.4725 10.25 17.1325 10.25 17.8125 C11.343125 17.93625 12.43625 18.06 13.5625 18.1875 C17.25 18.8125 17.25 18.8125 20.25 20.8125 C20.25 21.4725 20.25 22.1325 20.25 22.8125 C19.610625 22.53148437 18.97125 22.25046875 18.3125 21.9609375 C14.35874238 20.47827839 10.33948809 19.47456856 6.25 18.4375 C0.37894637 16.91200842 -5.4870524 15.3798088 -11.3125 13.6875 C-12.32441406 13.39617187 -13.33632813 13.10484375 -14.37890625 12.8046875 C-16.75 11.8125 -16.75 11.8125 -18.75 8.8125 C-18.875 6.125 -18.875 6.125 -18.75 3.8125 C-17.43 3.1525 -16.11 2.4925 -14.75 1.8125 C-14.75 1.1525 -14.75 0.4925 -14.75 -0.1875 C-9.50483528 -1.93588824 -5.17489039 -1.63871529 0 0 Z " fill="#6503FB" transform="translate(59.75,289.1875)"/>
<path d="M0 0 C0.66 0.33 1.32 0.66 2 1 C1.67 13.87 1.34 26.74 1 40 C-11 44 -11 44 -13 44 C-13 43.01 -13 42.02 -13 41 C-11.35 41.33 -9.7 41.66 -8 42 C-8 41.34 -8 40.68 -8 40 C-6.02 39.505 -6.02 39.505 -4 39 C-4.495 21.675 -4.495 21.675 -5 4 C-3.35 4.99 -1.7 5.98 0 7 C0 4.69 0 2.38 0 0 Z " fill="#F2EAF9" transform="translate(328,353)"/>
<path d="M0 0 C0.66 1.32 1.32 2.64 2 4 C2.66 3.01 3.32 2.02 4 1 C4 3.97 4 6.94 4 10 C3.34 10 2.68 10 2 10 C2.04125 10.78375 2.0825 11.5675 2.125 12.375 C2 15 2 15 0 17 C0.3185177 19.10820797 0.3185177 19.10820797 1 21 C0.29335205 20.5155542 -0.4132959 20.0311084 -1.14135742 19.53198242 C-4.28584448 17.84681236 -6.20169064 17.5828425 -9.73828125 17.48828125 C-10.80498047 17.45283203 -11.87167969 17.41738281 -12.97070312 17.38085938 C-14.07349609 17.35830078 -15.17628906 17.33574219 -16.3125 17.3125 C-17.99569336 17.26125977 -17.99569336 17.26125977 -19.71289062 17.20898438 C-22.47516062 17.12670399 -25.23712113 17.05748719 -28 17 C-28 16.67 -28 16.34 -28 16 C-21.4 15.34 -14.8 14.68 -8 14 C-10.64458379 12.67770811 -12.67761301 12.90322806 -15.625 12.9375 C-17.12933594 12.95103516 -17.12933594 12.95103516 -18.6640625 12.96484375 C-19.82035156 12.98224609 -19.82035156 12.98224609 -21 13 C-21.33 12.34 -21.66 11.68 -22 11 C-21.28714844 11.02320313 -20.57429688 11.04640625 -19.83984375 11.0703125 C-14.17534834 11.17704593 -9.27707208 11.17966021 -4 9 C-3.67 8.01 -3.34 7.02 -3 6 C-2.34 6 -1.68 6 -1 6 C-0.67 4.02 -0.34 2.04 0 0 Z " fill="#6301F8" transform="translate(439,250)"/>
<path d="M0 0 C0.99 0.99 1.98 1.98 3 3 C3 3.99 3 4.98 3 6 C5.64 5.34 8.28 4.68 11 4 C11 4.99 11 5.98 11 7 C12.65 7 14.3 7 16 7 C16 7.66 16 8.32 16 9 C15.236875 9.12375 14.47375 9.2475 13.6875 9.375 C10.79732864 9.88102792 10.79732864 9.88102792 8 12 C7.34 12 6.68 12 6 12 C6 12.66 6 13.32 6 14 C7.093125 14.12375 8.18625 14.2475 9.3125 14.375 C13 15 13 15 16 17 C16 17.66 16 18.32 16 19 C15.37738281 18.72414063 14.75476563 18.44828125 14.11328125 18.1640625 C9.88170543 16.58186728 5.56020308 15.49670758 1.1875 14.375 C0.30384766 14.14554687 -0.57980469 13.91609375 -1.49023438 13.6796875 C-3.6594189 13.11687205 -5.82933439 12.55707066 -8 12 C-8 11.67 -8 11.34 -8 11 C-4.535 10.505 -4.535 10.505 -1 10 C-0.67 6.7 -0.34 3.4 0 0 Z " fill="#7215FA" transform="translate(64,293)"/>
<path d="M0 0 C1.46373047 0.01353516 1.46373047 0.01353516 2.95703125 0.02734375 C4.06111328 0.04474609 4.06111328 0.04474609 5.1875 0.0625 C5.1875 0.3925 5.1875 0.7225 5.1875 1.0625 C1.8875 1.0625 -1.4125 1.0625 -4.8125 1.0625 C-4.8125 1.7225 -4.8125 2.3825 -4.8125 3.0625 C-7.1225 3.0625 -9.4325 3.0625 -11.8125 3.0625 C-13.01878008 5.39464148 -13.9779738 7.55892139 -14.8125 10.0625 C-16.875 10.75 -16.875 10.75 -18.8125 11.0625 C-18.956875 12.34125 -19.10125 13.62 -19.25 14.9375 C-19.34410156 15.75089844 -19.43820313 16.56429688 -19.53515625 17.40234375 C-19.72297282 19.20379565 -19.87561344 21.00920164 -19.99609375 22.81640625 C-20.05925781 23.70199219 -20.12242187 24.58757812 -20.1875 25.5 C-20.23648438 26.32371094 -20.28546875 27.14742188 -20.3359375 27.99609375 C-20.8125 30.0625 -20.8125 30.0625 -23.8125 32.0625 C-26.13646506 27.41456989 -25.22825773 21.12088572 -24.8125 16.0625 C-23.125 12.5625 -23.125 12.5625 -20.8125 10.0625 C-20.41546875 9.54300781 -20.0184375 9.02351563 -19.609375 8.48828125 C-14.18807812 1.4028521 -8.60388917 -0.10366132 0 0 Z " fill="#6D0EF8" transform="translate(245.8125,291.9375)"/>
<path d="M0 0 C0.33 0 0.66 0 1 0 C1.33 1.65 1.66 3.3 2 5 C2.33 5 2.66 5 3 5 C3 13.58 3 22.16 3 31 C4.32 31.33 5.64 31.66 7 32 C5.68 32 4.36 32 3 32 C3 32.66 3 33.32 3 34 C5.31 33.34 7.62 32.68 10 32 C10.99 32.99 11.98 33.98 13 35 C12.09507812 35.48919922 12.09507812 35.48919922 11.171875 35.98828125 C10.37265625 36.42527344 9.5734375 36.86226563 8.75 37.3125 C7.96109375 37.74175781 7.1721875 38.17101562 6.359375 38.61328125 C3.64646472 40.14858478 3.64646472 40.14858478 0 43 C0 28.81 0 14.62 0 0 Z " fill="#6D05FE" transform="translate(128,235)"/>
<path d="M0 0 C3.0625 1.625 3.0625 1.625 4.0625 3.625 C3.4025 3.625 2.7425 3.625 2.0625 3.625 C2.3925 4.615 2.7225 5.605 3.0625 6.625 C2.0725 6.295 1.0825 5.965 0.0625 5.625 C-3.49220071 5.55589282 -7.03515305 5.62769448 -10.58984375 5.6875 C-13.2998004 5.63690571 -15.38307569 5.44446444 -17.9375 4.625 C-18.2675 5.945 -18.5975 7.265 -18.9375 8.625 C-18.9375 6.975 -18.9375 5.325 -18.9375 3.625 C-17.6175 2.965 -16.2975 2.305 -14.9375 1.625 C-14.9375 0.965 -14.9375 0.305 -14.9375 -0.375 C-9.7874337 -2.09168877 -4.99643616 -2.03978218 0 0 Z " fill="#6A0AF7" transform="translate(59.9375,289.375)"/>
<path d="M0 0 C0 1.32 0 2.64 0 4 C0.99 4.33 1.98 4.66 3 5 C3 5.99 3 6.98 3 8 C2.0925 8.391875 1.185 8.78375 0.25 9.1875 C-3.15319801 11.08543735 -4.68188403 12.93677533 -7 16 C-7.66 16 -8.32 16 -9 16 C-9 12.37 -9 8.74 -9 5 C-10.32 4.67 -11.64 4.34 -13 4 C-11.35 3.34 -9.7 2.68 -8 2 C-8 1.67 -8 1.34 -8 1 C-5.23735711 0.40267181 -2.83967231 0 0 0 Z " fill="#6605F9" transform="translate(336,264)"/>
<path d="M0 0 C2.75289616 0.36222318 5.37960217 0.77130433 7.9921875 1.734375 C17.93267601 5.38036733 29.68762377 5.03620168 40 3 C38 5 38 5 35 7 C32.14345704 7 29.31082218 6.90204538 26.45703125 6.78125 C25.38388672 6.73613281 24.31074219 6.69101562 23.20507812 6.64453125 C22.08552734 6.59683594 20.96597656 6.54914063 19.8125 6.5 C18.68134766 6.45230469 17.55019531 6.40460938 16.38476562 6.35546875 C13.58981962 6.23753854 10.79489952 6.11902619 8 6 C8 6.66 8 7.32 8 8 C6.35 8 4.7 8 3 8 C2.67 6.68 2.34 5.36 2 4 C1.34 4 0.68 4 0 4 C0 2.68 0 1.36 0 0 Z " fill="#711AF8" transform="translate(219,359)"/>
<path d="M0 0 C1.1875 1.5625 1.1875 1.5625 2 4 C0.9375 7.6875 0.9375 7.6875 -1 11 C-3.6875 11.9375 -3.6875 11.9375 -6 12 C-6 13.32 -6 14.64 -6 16 C-6.66 16 -7.32 16 -8 16 C-8 16.66 -8 17.32 -8 18 C-11.25 19.625 -11.25 19.625 -15 21 C-17.234375 20.0859375 -17.234375 20.0859375 -19 19 C-17.2527456 17.70462174 -15.50208483 16.41383727 -13.75 15.125 C-12.77546875 14.40570313 -11.8009375 13.68640625 -10.796875 12.9453125 C-8 11 -8 11 -5.67578125 9.85546875 C-4.84626953 9.43201172 -4.84626953 9.43201172 -4 9 C-3.38932856 7.14255793 -3.38932856 7.14255793 -3 5 C-2.0398183 3.31008021 -1.04644066 1.63790712 0 0 Z " fill="#721BF8" transform="translate(537,339)"/>
<path d="M0 0 C0.12375 0.639375 0.2475 1.27875 0.375 1.9375 C0.58125 2.618125 0.7875 3.29875 1 4 C1.66 4.33 2.32 4.66 3 5 C2.113125 5.53625 1.22625 6.0725 0.3125 6.625 C-3.18288216 8.93311458 -5.44874658 11.69837793 -8 15 C-10.95183101 12.04816899 -11.08663988 9.04488053 -12 5 C-11.34 5 -10.68 5 -10 5 C-9.67 4.34 -9.34 3.68 -9 3 C-8.01 4.485 -8.01 4.485 -7 6 C-6.01 6 -5.02 6 -4 6 C-3.67 5.01 -3.34 4.02 -3 3 C-1.4375 1.3125 -1.4375 1.3125 0 0 Z " fill="#6A0EF8" transform="translate(586,265)"/>
<path d="M0 0 C0.82638376 2.89234315 1 4.88742431 1 8 C0.01 8.495 0.01 8.495 -1 9 C-1.33 15.93 -1.66 22.86 -2 30 C-1.34 30 -0.68 30 0 30 C0.92091738 32.57856865 1.18506902 33.5943287 0.0234375 36.140625 C-0.48316406 37.06101562 -0.48316406 37.06101562 -1 38 C-5.56974012 24.6715913 -4.88891983 13.13897204 0 0 Z " fill="#DDC3FB" transform="translate(200,296)"/>
<path d="M0 0 C-1.98 0.99 -1.98 0.99 -4 2 C-4 3.32 -4 4.64 -4 6 C-5.65 6.33 -7.3 6.66 -9 7 C-8.67 7.99 -8.34 8.98 -8 10 C-10.49361571 8.79618552 -12.68143083 7.54571278 -15 6 C-15 5.01 -15 4.02 -15 3 C-13.06643218 2.30151736 -11.12797702 1.61655186 -9.1875 0.9375 C-8.10855469 0.55464844 -7.02960938 0.17179687 -5.91796875 -0.22265625 C-3 -1 -3 -1 0 0 Z " fill="#711BF8" transform="translate(491,329)"/>
<path d="M0 0 C0.66 0 1.32 0 2 0 C4.30844801 6.34823202 4.19818283 12.29481414 4 19 C3.01 18.67 2.02 18.34 1 18 C1 15.36 1 12.72 1 10 C0.34 10 -0.32 10 -1 10 C-1.125 2.25 -1.125 2.25 0 0 Z " fill="#FBF7FA" transform="translate(182,286)"/>
<path d="M0 0 C8.91 0 17.82 0 27 0 C27.33 0.99 27.66 1.98 28 3 C24.9317362 3.89749822 22.20730024 4.11711768 19.015625 4.09765625 C18.08105469 4.09443359 17.14648438 4.09121094 16.18359375 4.08789062 C15.21550781 4.07951172 14.24742188 4.07113281 13.25 4.0625 C12.26644531 4.05798828 11.28289062 4.05347656 10.26953125 4.04882812 C7.84629209 4.03706483 5.42317727 4.02062684 3 4 C3 3.67 3 3.34 3 3 C11.415 2.505 11.415 2.505 20 2 C13.4 1.67 6.8 1.34 0 1 C0 0.67 0 0.34 0 0 Z " fill="#6306F5" transform="translate(103,362)"/>
<path d="M0 0 C2.64 0 5.28 0 8 0 C8 0.33 8 0.66 8 1 C6.35 1 4.7 1 3 1 C3 1.66 3 2.32 3 3 C8.61 3 14.22 3 20 3 C20 3.33 20 3.66 20 4 C18.40671875 4.09087891 18.40671875 4.09087891 16.78125 4.18359375 C6.36284897 4.79270238 6.36284897 4.79270238 -4 6 C-4 6.66 -4 7.32 -4 8 C-4.99 8 -5.98 8 -7 8 C-6.67 6.68 -6.34 5.36 -6 4 C-4.35 3.67 -2.7 3.34 -1 3 C-0.67 2.01 -0.34 1.02 0 0 Z " fill="#7119FA" transform="translate(231,264)"/>
<path d="M0 0 C6.93 0 13.86 0 21 0 C22.9955516 3.99110319 23.19546065 5.69986566 23 10 C21.68 10 20.36 10 19 10 C18 3.25 18 3.25 18 1 C12.06 1 6.12 1 0 1 C0 0.67 0 0.34 0 0 Z " fill="#E5D3F7" transform="translate(553,270)"/>
<path d="M0 0 C4.29 0.33 8.58 0.66 13 1 C13 1.33 13 1.66 13 2 C18.28 2.33 23.56 2.66 29 3 C29 3.66 29 4.32 29 5 C28.03175293 4.99214478 28.03175293 4.99214478 27.04394531 4.98413086 C24.11264015 4.96331343 21.18135057 4.95032466 18.25 4.9375 C17.23421875 4.92912109 16.2184375 4.92074219 15.171875 4.91210938 C14.1921875 4.90888672 13.2125 4.90566406 12.203125 4.90234375 C11.30239258 4.89710693 10.40166016 4.89187012 9.47363281 4.88647461 C7.16610196 4.99237688 5.20865595 5.34867187 3 6 C3 4.68 3 3.36 3 2 C2.01 1.67 1.02 1.34 0 1 C0 0.67 0 0.34 0 0 Z " fill="#7218FA" transform="translate(338,264)"/>
<path d="M0 0 C6.57315478 -0.36517527 11.79485526 0.86380263 18 3 C18 3.66 18 4.32 18 5 C19.65 5.66 21.3 6.32 23 7 C23 7.66 23 8.32 23 9 C21.68 9.33 20.36 9.66 19 10 C18.34 8.35 17.68 6.7 17 5 C15.02 5 13.04 5 11 5 C10.67 4.34 10.34 3.68 10 3 C7.64400765 2.53248212 7.64400765 2.53248212 4.9375 2.375 C4.01839844 2.30023438 3.09929687 2.22546875 2.15234375 2.1484375 C1.44207031 2.09945313 0.73179687 2.05046875 0 2 C0 1.34 0 0.68 0 0 Z " fill="#690DF5" transform="translate(491,290)"/>
<path d="M0 0 C0.99 0.66 1.98 1.32 3 2 C3 3.32 3 4.64 3 6 C2.34 6 1.68 6 1 6 C1.33 17.55 1.66 29.1 2 41 C0.68 40.34 -0.64 39.68 -2 39 C-1.34 39 -0.68 39 0 39 C0 26.13 0 13.26 0 0 Z " fill="#660CFA" transform="translate(329,354)"/>
<path d="M0 0 C1.8871875 0.0309375 1.8871875 0.0309375 3.8125 0.0625 C3.8125 0.7225 3.8125 1.3825 3.8125 2.0625 C7.1125 2.0625 10.4125 2.0625 13.8125 2.0625 C13.8125 1.4025 13.8125 0.7425 13.8125 0.0625 C14.8025 0.3925 15.7925 0.7225 16.8125 1.0625 C16.8125 1.7225 16.8125 2.3825 16.8125 3.0625 C17.8025 3.3925 18.7925 3.7225 19.8125 4.0625 C11.5625 4.0625 3.3125 4.0625 -5.1875 4.0625 C-5.1875 3.4025 -5.1875 2.7425 -5.1875 2.0625 C-5.8475 1.7325 -6.5075 1.4025 -7.1875 1.0625 C-4.43671116 0.14557039 -2.82801087 -0.04636083 0 0 Z " fill="#6A0DF8" transform="translate(487.1875,264.9375)"/>
<path d="M0 0 C0.74958984 0.00902344 1.49917969 0.01804688 2.27148438 0.02734375 C4.11862654 0.05087422 5.96560412 0.08674439 7.8125 0.125 C7.1525 1.445 6.4925 2.765 5.8125 4.125 C5.07644531 4.11339844 4.34039062 4.10179687 3.58203125 4.08984375 C2.60621094 4.08082031 1.63039063 4.07179687 0.625 4.0625 C-0.33792969 4.05089844 -1.30085938 4.03929687 -2.29296875 4.02734375 C-5.04326513 4.12013378 -7.51229591 4.50388315 -10.1875 5.125 C-10.5175 4.135 -10.8475 3.145 -11.1875 2.125 C-7.39586973 -0.40275351 -4.37875969 -0.09943035 0 0 Z " fill="#660AF6" transform="translate(424.1875,225.875)"/>
<path d="M0 0 C2.0625 2.1875 2.0625 2.1875 4 5 C3.83284213 8.42673626 2.65360821 11.02350522 1 14 C-1.31 13.67 -3.62 13.34 -6 13 C-4.68 12.67 -3.36 12.34 -2 12 C-1.93941406 11.30132812 -1.87882813 10.60265625 -1.81640625 9.8828125 C-1.73261719 8.97273438 -1.64882813 8.06265625 -1.5625 7.125 C-1.48128906 6.22007812 -1.40007813 5.31515625 -1.31640625 4.3828125 C-1 2 -1 2 0 0 Z " fill="#F8F4FA" transform="translate(605,280)"/>
<path d="M0 0 C0.33 0.99 0.66 1.98 1 3 C1.66 3 2.32 3 3 3 C3 2.01 3 1.02 3 0 C3.99 0 4.98 0 6 0 C5.83423117 6.46498449 1.99651306 10.30435802 -2 15 C-2.33 14.34 -2.66 13.68 -3 13 C-2.71125 12.29875 -2.4225 11.5975 -2.125 10.875 C-0.69375085 7.21736329 -0.39699686 3.90380247 0 0 Z " fill="#7217FA" transform="translate(292,320)"/>
<path d="M0 0 C-0.804375 0.45375 -1.60875 0.9075 -2.4375 1.375 C-5.08856572 2.74725665 -5.08856572 2.74725665 -6 5 C-13.92 5 -21.84 5 -30 5 C-30 4.34 -30 3.68 -30 3 C-28.09927734 2.94392578 -28.09927734 2.94392578 -26.16015625 2.88671875 C-24.46091069 2.82100207 -22.7616932 2.75455677 -21.0625 2.6875 C-20.23169922 2.66494141 -19.40089844 2.64238281 -18.54492188 2.61914062 C-13.21131374 2.3908539 -8.78557755 1.49219141 -3.81030273 -0.46557617 C-2 -1 -2 -1 0 0 Z " fill="#8639FA" transform="translate(515,361)"/>
<path d="M0 0 C-0.5259375 0.928125 -0.5259375 0.928125 -1.0625 1.875 C-1.371875 2.57625 -1.68125 3.2775 -2 4 C-1.67 4.66 -1.34 5.32 -1 6 C-6.28 6 -11.56 6 -17 6 C-17 5.67 -17 5.34 -17 5 C-11.06 4.505 -11.06 4.505 -5 4 C-7.64458379 2.67770811 -9.67761301 2.90322806 -12.625 2.9375 C-14.12933594 2.95103516 -14.12933594 2.95103516 -15.6640625 2.96484375 C-16.82035156 2.98224609 -16.82035156 2.98224609 -18 3 C-18.33 2.34 -18.66 1.68 -19 1 C-18.26394531 1.02320313 -17.52789062 1.04640625 -16.76953125 1.0703125 C-15.30580078 1.09738281 -15.30580078 1.09738281 -13.8125 1.125 C-12.36810547 1.15980469 -12.36810547 1.15980469 -10.89453125 1.1953125 C-7.96970831 1.14723785 -7.96970831 1.14723785 -5.32421875 -0.0703125 C-3 -1 -3 -1 0 0 Z " fill="#8433F6" transform="translate(436,260)"/>
<path d="M0 0 C0.33 0 0.66 0 1 0 C1.08165496 2.20770805 1.13948488 4.41630425 1.1875 6.625 C1.22230469 7.85476563 1.25710938 9.08453125 1.29296875 10.3515625 C0.97668791 14.29031323 -0.06169189 16.59807148 -2 20 C-2.68636625 22.23525035 -2.68636625 22.23525035 -3 24 C-4.98 23.67 -6.96 23.34 -9 23 C-8.59007812 22.56429688 -8.18015625 22.12859375 -7.7578125 21.6796875 C-1.65388137 14.93323731 -0.66731851 8.88587274 0 0 Z " fill="#DEC3FB" transform="translate(268,312)"/>
<path d="M0 0 C0.33 0 0.66 0 1 0 C1 12.87 1 25.74 1 39 C1.66 39 2.32 39 3 39 C2.34 40.32 1.68 41.64 1 43 C0.67 43 0.34 43 0 43 C0 28.81 0 14.62 0 0 Z " fill="#7115FA" transform="translate(128,235)"/>
<path d="M0 0 C1.2393919 3.5804655 0.87401862 6.34501304 0 10 C-0.66 10.66 -1.32 11.32 -2 12 C-4.125 11.625 -4.125 11.625 -6 11 C-4.68 10.34 -3.36 9.68 -2 9 C-2 8.01 -2 7.02 -2 6 C-2.99 7.485 -2.99 7.485 -4 9 C-7.125 10.1875 -7.125 10.1875 -10 11 C-9.34 10.01 -8.68 9.02 -8 8 C-7.34 8 -6.68 8 -6 8 C-5.67 7.01 -5.34 6.02 -5 5 C-3.37347684 3.29413425 -1.70993434 1.6222454 0 0 Z " fill="#6302F5" transform="translate(89,347)"/>
<path d="M0 0 C1.89668064 2.84502097 3.23263478 5.57299885 4.625 8.6875 C5.07101563 9.68136719 5.51703125 10.67523438 5.9765625 11.69921875 C6.31429687 12.45847656 6.65203125 13.21773438 7 14 C6.01 14.495 6.01 14.495 5 15 C5 14.01 5 13.02 5 12 C2.03 11.505 2.03 11.505 -1 11 C-1.02688151 9.35425434 -1.04634123 7.70838587 -1.0625 6.0625 C-1.07410156 5.14597656 -1.08570313 4.22945313 -1.09765625 3.28515625 C-1 1 -1 1 0 0 Z " fill="#6D11F9" transform="translate(197,328)"/>
<path d="M0 0 C0.66 0.33 1.32 0.66 2 1 C2 5.29 2 9.58 2 14 C1.01 13.67 0.02 13.34 -1 13 C-1.33 13.99 -1.66 14.98 -2 16 C-2 12.7 -2 9.4 -2 6 C-1.01 5.67 -0.02 5.34 1 5 C0.67 3.35 0.34 1.7 0 0 Z " fill="#6101FB" transform="translate(374,307)"/>
<path d="M0 0 C-0.66 1.32 -1.32 2.64 -2 4 C0.31 4 2.62 4 5 4 C2.41212273 6.58787727 0.57992139 6.62709152 -3 7 C-5 6 -5 6 -6 3 C-6.66 3 -7.32 3 -8 3 C-8 2.34 -8 1.68 -8 1 C-5.29120665 -0.35439668 -2.99066732 -0.06501451 0 0 Z " fill="#6405F5" transform="translate(480,301)"/>
<path d="M0 0 C0.33 0.66 0.66 1.32 1 2 C1.66 2.33 2.32 2.66 3 3 C2.34 3 1.68 3 1 3 C0.34 4.98 -0.32 6.96 -1 9 C-7.625 10 -7.625 10 -11 10 C-6.25 6 -6.25 6 -4 6 C-3.71125 5.38125 -3.4225 4.7625 -3.125 4.125 C-2 2 -2 2 0 0 Z " fill="#7823F8" transform="translate(282,346)"/>
<path d="M0 0 C0 0.66 0 1.32 0 2 C-0.99 2 -1.98 2 -3 2 C-3.04125 2.61875 -3.0825 3.2375 -3.125 3.875 C-3.558125 4.926875 -3.558125 4.926875 -4 6 C-4.928125 6.28875 -5.85625 6.5775 -6.8125 6.875 C-10.90387611 8.3190151 -11.91029063 10.30282189 -14 14 C-14.99 13.34 -15.98 12.68 -17 12 C-15.92643323 10.84501103 -14.84070212 9.70132133 -13.75 8.5625 C-12.84507812 7.60537109 -12.84507812 7.60537109 -11.921875 6.62890625 C-9.89951984 4.91483694 -8.58729395 4.40641122 -6 4 C-6 3.34 -6 2.68 -6 2 C-2.25 0 -2.25 0 0 0 Z " fill="#EAD9FA" transform="translate(225,272)"/>
<path d="M0 0 C2.0625 0.4375 2.0625 0.4375 4 1 C3.34 1 2.68 1 2 1 C2.33 2.65 2.66 4.3 3 6 C2.01902344 5.68289063 1.03804687 5.36578125 0.02734375 5.0390625 C-4.11926782 3.85431634 -8.14539137 3.5634915 -12.4375 3.375 C-13.53481445 3.31699219 -13.53481445 3.31699219 -14.65429688 3.2578125 C-16.43583532 3.16466016 -18.21788122 3.08129714 -20 3 C-20 2.67 -20 2.34 -20 2 C-19.42967041 1.97494385 -18.85934082 1.9498877 -18.27172852 1.92407227 C-15.70173843 1.80843451 -13.13214473 1.68556376 -10.5625 1.5625 C-9.66466797 1.52318359 -8.76683594 1.48386719 -7.84179688 1.44335938 C-6.98779297 1.40146484 -6.13378906 1.35957031 -5.25390625 1.31640625 C-4.46314697 1.27974854 -3.6723877 1.24309082 -2.85766602 1.20532227 C-0.98598559 1.19436743 -0.98598559 1.19436743 0 0 Z " fill="#7A29FA" transform="translate(167,265)"/>
<path d="M0 0 C0.66 0.33 1.32 0.66 2 1 C0.68 1.33 -0.64 1.66 -2 2 C-1.34 2.33 -0.68 2.66 0 3 C0 4.32 0 5.64 0 7 C0.99 7.33 1.98 7.66 3 8 C3.33 10.64 3.66 13.28 4 16 C0.02527913 12.29939781 -2.87132836 9.27319898 -3.1875 3.6875 C-3.125625 2.800625 -3.06375 1.91375 -3 1 C-2.01 0.67 -1.02 0.34 0 0 Z " fill="#EADAF4" transform="translate(19,336)"/>
<path d="M0 0 C0.99 0.33 1.98 0.66 3 1 C1.125 5.75 1.125 5.75 0 8 C-0.99 8 -1.98 8 -3 8 C-2.67 8.99 -2.34 9.98 -2 11 C-3.65 10.67 -5.3 10.34 -7 10 C-6.02223933 8.51990357 -5.0427506 7.04094856 -4.0625 5.5625 C-3.51722656 4.73878906 -2.97195313 3.91507812 -2.41015625 3.06640625 C-1 1 -1 1 0 0 Z " fill="#7921F8" transform="translate(394,340)"/>
<path d="M0 0 C-0.99 0.495 -0.99 0.495 -2 1 C-1.34 2.32 -0.68 3.64 0 5 C-3.63 4.34 -7.26 3.68 -11 3 C-11.33 3.66 -11.66 4.32 -12 5 C-12.66 4.34 -13.32 3.68 -14 3 C-12.42274653 2.29866401 -10.83788667 1.614417 -9.25 0.9375 C-7.92742187 0.36322266 -7.92742187 0.36322266 -6.578125 -0.22265625 C-3.84743691 -1.04600008 -2.63098653 -0.9773992 0 0 Z " fill="#F2E4FC" transform="translate(497,306)"/>
<path d="M0 0 C8.57142857 -0.14285714 8.57142857 -0.14285714 12 1 C12 1.99 12 2.98 12 4 C7.71 3.67 3.42 3.34 -1 3 C-0.67 2.01 -0.34 1.02 0 0 Z " fill="#F4EEFC" transform="translate(351,289)"/>
<path d="M0 0 C1.09248047 0.01160156 1.09248047 0.01160156 2.20703125 0.0234375 C2.92761719 0.01570313 3.64820313 0.00796875 4.390625 0 C8.18702194 0.01398305 11.1148394 0.15110151 14.33203125 2.2734375 C9.3785245 3.32820629 4.95363776 3.22897978 -0.04296875 2.8359375 C-0.77902344 2.78373047 -1.51507812 2.73152344 -2.2734375 2.67773438 C-4.07207504 2.54926027 -5.87009784 2.41222801 -7.66796875 2.2734375 C-5.12644796 -0.26808329 -3.47035892 0.01282942 0 0 Z " fill="#E9D9F5" transform="translate(596.66796875,267.7265625)"/>
<path d="M0 0 C0.66 0.33 1.32 0.66 2 1 C1.38125 1.0825 0.7625 1.165 0.125 1.25 C-2.67505419 2.23825442 -2.74113932 3.40359985 -4 6 C-6.0625 7.125 -6.0625 7.125 -8 8 C-8.33 8.66 -8.66 9.32 -9 10 C-8.34 10.33 -7.68 10.66 -7 11 C-7.33 11.66 -7.66 12.32 -8 13 C-8.66 13 -9.32 13 -10 13 C-10.66 11.68 -11.32 10.36 -12 9 C-10.56771184 7.68181446 -9.12897516 6.37063296 -7.6875 5.0625 C-6.88699219 4.33160156 -6.08648437 3.60070312 -5.26171875 2.84765625 C-3 1 -3 1 0 0 Z " fill="#8434F7" transform="translate(345,293)"/>
<path d="M0 0 C0 0.66 0 1.32 0 2 C0.99 2.33 1.98 2.66 3 3 C-0.63 3.33 -4.26 3.66 -8 4 C-8 4.66 -8 5.32 -8 6 C-8.66 6 -9.32 6 -10 6 C-10 5.01 -10 4.02 -10 3 C-9.34 2.67 -8.68 2.34 -8 2 C-8 1.34 -8 0.68 -8 0 C-5.13822943 -1.43088528 -3.06624227 -0.59991697 0 0 Z " fill="#F4E7FA" transform="translate(595,289)"/>
<path d="M0 0 C0 0.99 0 1.98 0 3 C-0.66 3.66 -1.32 4.32 -2 5 C-4.91952568 4.98251781 -7.72297885 4.86055367 -10.625 4.625 C-11.42679688 4.56828125 -12.22859375 4.5115625 -13.0546875 4.453125 C-15.03715498 4.31152018 -17.01869051 4.15697741 -19 4 C-19 3.67 -19 3.34 -19 3 C-13.555 2.505 -13.555 2.505 -8 2 C-8 1.67 -8 1.34 -8 1 C-5.23735711 0.40267181 -2.83967231 0 0 0 Z " fill="#7B27FD" transform="translate(67,264)"/>
<path d="M0 0 C2.66666667 2.66666667 5.33333333 5.33333333 8 8 C7.67 8.66 7.34 9.32 7 10 C5.68 10 4.36 10 3 10 C3 9.34 3 8.68 3 8 C2.01 7.67 1.02 7.34 0 7 C0 4.69 0 2.38 0 0 Z " fill="#6508F9" transform="translate(20,349)"/>
<path d="M0 0 C1.46373047 0.01353516 1.46373047 0.01353516 2.95703125 0.02734375 C4.06111328 0.04474609 4.06111328 0.04474609 5.1875 0.0625 C5.1875 0.3925 5.1875 0.7225 5.1875 1.0625 C1.8875 1.0625 -1.4125 1.0625 -4.8125 1.0625 C-4.8125 1.7225 -4.8125 2.3825 -4.8125 3.0625 C-7.1225 3.0625 -9.4325 3.0625 -11.8125 3.0625 C-12.4725 4.3825 -13.1325 5.7025 -13.8125 7.0625 C-14.8025 6.4025 -15.7925 5.7425 -16.8125 5.0625 C-11.03331321 0.89610952 -7.03568247 -0.08476726 0 0 Z " fill="#8B41FB" transform="translate(245.8125,291.9375)"/>
<path d="M0 0 C0.33 1.32 0.66 2.64 1 4 C-0.32 3.67 -1.64 3.34 -3 3 C-3 3.66 -3 4.32 -3 5 C-1.35 5 0.3 5 2 5 C2 5.99 2 6.98 2 8 C-2.35535069 6.83857315 -4.64619703 5.92300495 -7 2 C-2.25 0 -2.25 0 0 0 Z " fill="#EBDCFA" transform="translate(337,352)"/>
<path d="M0 0 C2.64752004 2.57784846 4.94432065 4.91648098 7 8 C4.75 8.25 4.75 8.25 2 8 C-0.3125 6.125 -0.3125 6.125 -2 4 C-2 3.34 -2 2.68 -2 2 C-1.34 2 -0.68 2 0 2 C0 1.34 0 0.68 0 0 Z " fill="#731AF7" transform="translate(455,344)"/>
<path d="M0 0 C0.33 0.99 0.66 1.98 1 3 C1.99 3 2.98 3 4 3 C4 5.64 4 8.28 4 11 C3.01 10.01 2.02 9.02 1 8 C0.01 8.66 -0.98 9.32 -2 10 C-1.54177532 6.53058454 -1.10868317 3.32604951 0 0 Z " fill="#690CF1" transform="translate(398,330)"/>
<path d="M0 0 C0.99 0.66 1.98 1.32 3 2 C1.68 5.3 0.36 8.6 -1 12 C-3.14418558 8.78372163 -3.67582137 6.80909895 -4 3 C-3.34 2.34 -2.68 1.68 -2 1 C-1.67 1.33 -1.34 1.66 -1 2 C-0.67 1.34 -0.34 0.68 0 0 Z " fill="#6D10F8" transform="translate(200,290)"/>
<path d="M0 0 C0 0.33 0 0.66 0 1 C-2.10251861 1.67184618 -4.20707763 2.33730968 -6.3125 3 C-8.07013672 3.556875 -8.07013672 3.556875 -9.86328125 4.125 C-13 5 -13 5 -16 5 C-16 4.34 -16 3.68 -16 3 C-14.75108386 2.51801537 -13.50081192 2.03954323 -12.25 1.5625 C-11.55390625 1.29566406 -10.8578125 1.02882813 -10.140625 0.75390625 C-6.32514215 -0.58986782 -3.92422569 -1.26135826 0 0 Z " fill="#F5EBF4" transform="translate(533,313)"/>
<path d="M0 0 C0.33 0.66 0.66 1.32 1 2 C1.66 2 2.32 2 3 2 C3 3.32 3 4.64 3 6 C3.66 6 4.32 6 5 6 C5.33 7.32 5.66 8.64 6 10 C5.34 10 4.68 10 4 10 C3.67 9.34 3.34 8.68 3 8 C2.01 8.495 2.01 8.495 1 9 C-1 6 -1 6 -0.625 2.8125 C-0.41875 1.884375 -0.2125 0.95625 0 0 Z " fill="#EEE6F8" transform="translate(533,288)"/>
<path d="M0 0 C0.66 0 1.32 0 2 0 C2.66 3.3 3.32 6.6 4 10 C3.34 9.34 2.68 8.68 2 8 C1.67 8.66 1.34 9.32 1 10 C0.34 10 -0.32 10 -1 10 C-1.125 2.25 -1.125 2.25 0 0 Z " fill="#E7D6FC" transform="translate(182,286)"/>
<path d="M0 0 C1.9451 2.91765 2.45276317 4.62537285 3 8 C0.69631264 9.06652192 -1.64018187 10.06421005 -4 11 C-4.66 10.67 -5.32 10.34 -6 10 C-4.35 9.67 -2.7 9.34 -1 9 C-1.20625 8.443125 -1.4125 7.88625 -1.625 7.3125 C-2.10695211 4.340462 -1.26565028 2.68020059 0 0 Z " fill="#DCC3F9" transform="translate(85,285)"/>
<path d="M0 0 C0.66 0 1.32 0 2 0 C2.33 1.32 2.66 2.64 3 4 C2.34 4 1.68 4 1 4 C1 7.63 1 11.26 1 15 C0.34 15 -0.32 15 -1 15 C-1 11.37 -1 7.74 -1 4 C-2.32 3.67 -3.64 3.34 -5 3 C-3.35 2.34 -1.7 1.68 0 1 C0 0.67 0 0.34 0 0 Z " fill="#9148F8" transform="translate(328,265)"/>
<path d="M0 0 C0.33 0 0.66 0 1 0 C1 3.3 1 6.6 1 10 C-0.32 10.33 -1.64 10.66 -3 11 C-3.33 9.68 -3.66 8.36 -4 7 C-3.01 6.67 -2.02 6.34 -1 6 C-0.67 4.02 -0.34 2.04 0 0 Z " fill="#7319F8" transform="translate(439,250)"/>
<path d="M0 0 C0.99 0.66 1.98 1.32 3 2 C3 2.99 3 3.98 3 5 C1.1875 6.0625 1.1875 6.0625 -1 7 C-1.99 6.67 -2.98 6.34 -4 6 C-4.33 5.34 -4.66 4.68 -5 4 C-3.35 2.68 -1.7 1.36 0 0 Z " fill="#6F16F8" transform="translate(384,352)"/>
<path d="M0 0 C0.66 0 1.32 0 2 0 C2.33 1.32 2.66 2.64 3 4 C2.38125 4.04125 1.7625 4.0825 1.125 4.125 C0.42375 4.41375 -0.2775 4.7025 -1 5 C-2.3045656 7.99615946 -2.3045656 7.99615946 -3 11 C-3.99 10.67 -4.98 10.34 -6 10 C-4.63312778 6.01328937 -2.84804907 3.11505367 0 0 Z " fill="#721FF5" transform="translate(228,298)"/>
<path d="M0 0 C0.99 0.33 1.98 0.66 3 1 C3.6875 3.25 3.6875 3.25 4 6 C2.5625 8.3125 2.5625 8.3125 1 10 C1 8.68 1 7.36 1 6 C0.34 6 -0.32 6 -1 6 C-1.33 4.35 -1.66 2.7 -2 1 C-1.34 0.67 -0.68 0.34 0 0 Z " fill="#741EFA" transform="translate(535,284)"/>
<path d="M0 0 C4.7517398 0.43197635 6.92000054 1.32769295 10 5 C9.01 5 8.02 5 7 5 C6.67 5.66 6.34 6.32 6 7 C5.67 6.34 5.34 5.68 5 5 C4.154375 4.505 3.30875 4.01 2.4375 3.5 C1.633125 3.005 0.82875 2.51 0 2 C0 1.34 0 0.68 0 0 Z " fill="#F6F0F5" transform="translate(69,272)"/>
<path d="M0 0 C7.59 0.33 15.18 0.66 23 1 C23 1.33 23 1.66 23 2 C22.06148193 2.03758423 22.06148193 2.03758423 21.10400391 2.07592773 C18.27745381 2.19175273 15.45124831 2.31453985 12.625 2.4375 C11.14773438 2.49647461 11.14773438 2.49647461 9.640625 2.55664062 C8.22910156 2.61948242 8.22910156 2.61948242 6.7890625 2.68359375 C5.91975098 2.72025146 5.05043945 2.75690918 4.15478516 2.79467773 C1.9516738 2.87401544 1.9516738 2.87401544 0 4 C0 2.68 0 1.36 0 0 Z " fill="#6910FA" transform="translate(551,268)"/>
<path d="M0 0 C1.32 0 2.64 0 4 0 C3.875 1.75 3.875 1.75 3 4 C-0.0625 6.25 -0.0625 6.25 -3 8 C-3 6.68 -3 5.36 -3 4 C-2.34 4 -1.68 4 -1 4 C-0.67 2.68 -0.34 1.36 0 0 Z " fill="#F3EAF5" transform="translate(383,348)"/>
<path d="M0 0 C0 2 0 4 0 6 C-1.32 6 -2.64 6 -4 6 C-4 6.66 -4 7.32 -4 8 C-5.32 8.33 -6.64 8.66 -8 9 C-7.875 7.25 -7.875 7.25 -7 5 C-4 2.8125 -4 2.8125 -1 1 C-0.67 0.67 -0.34 0.34 0 0 Z " fill="#EEE2F7" transform="translate(371,332)"/>
<path d="M0 0 C-0.3125 1.875 -0.3125 1.875 -1 4 C-1.99 4.66 -2.98 5.32 -4 6 C-4.99 5.34 -5.98 4.68 -7 4 C-7 3.01 -7 2.02 -7 1 C-4.50935112 0.31292445 -2.62113708 0 0 0 Z " fill="#7927FA" transform="translate(483,331)"/>
<path d="M0 0 C0.33 0.66 0.66 1.32 1 2 C3.33157492 2.34541851 5.66508361 2.67794257 8 3 C8.99 3.66 9.98 4.32 11 5 C11 5.66 11 6.32 11 7 C10.29488281 6.70351563 9.58976562 6.40703125 8.86328125 6.1015625 C5.99677739 4.9987602 3.15507468 4.16158606 0.1875 3.375 C-0.78832031 3.11460937 -1.76414062 2.85421875 -2.76953125 2.5859375 C-3.50558594 2.39257812 -4.24164063 2.19921875 -5 2 C-5 1.67 -5 1.34 -5 1 C-3.35 0.67 -1.7 0.34 0 0 Z " fill="#7525F8" transform="translate(69,305)"/>
<path d="M0 0 C2.97 0.33 5.94 0.66 9 1 C5.31265242 3.45823172 2.30300029 4.01242616 -2 5 C-1.34 3.35 -0.68 1.7 0 0 Z " fill="#7721FB" transform="translate(501,299)"/>
<path d="M0 0 C0.33 0.66 0.66 1.32 1 2 C0.05016642 3.50539661 -0.91011891 5.00420347 -1.875 6.5 C-2.40867187 7.3353125 -2.94234375 8.170625 -3.4921875 9.03125 C-3.98976563 9.6809375 -4.48734375 10.330625 -5 11 C-5.66 11 -6.32 11 -7 11 C-7 11.99 -7 12.98 -7 14 C-7.66 14 -8.32 14 -9 14 C-7.65070536 10.16336928 -5.92248975 7.34827431 -3.375 4.1875 C-2.42753906 3.00220703 -2.42753906 3.00220703 -1.4609375 1.79296875 C-0.97882813 1.20128906 -0.49671875 0.60960937 0 0 Z " fill="#E6CEF6" transform="translate(461,280)"/>
<path d="M0 0 C0.33 0 0.66 0 1 0 C1.06058594 0.65226562 1.12117187 1.30453125 1.18359375 1.9765625 C1.63519991 6.68716217 2.14195039 11.34201638 3 16 C2.01 16 1.02 16 0 16 C-1.30267176 10.49983036 -0.71033431 5.52967941 0 0 Z " fill="#E4CAFB" transform="translate(220,312)"/>
<path d="M0 0 C0.6875 1.75 0.6875 1.75 1 4 C-0.4375 6.25 -0.4375 6.25 -2 8 C-3.65 7.67 -5.3 7.34 -7 7 C-6.34 6.67 -5.68 6.34 -5 6 C-5 5.34 -5 4.68 -5 4 C-3.37373596 2.61767557 -1.7074998 1.28062485 0 0 Z " fill="#F0E4FD" transform="translate(514,333)"/>
<path d="M0 0 C-3.79541663 2.21399303 -7.75629421 3.00980198 -12 4 C-12 3.34 -12 2.68 -12 2 C-11.34 2 -10.68 2 -10 2 C-10 1.34 -10 0.68 -10 0 C-6.30581799 -1.231394 -3.7943739 -0.64432764 0 0 Z " fill="#F5ECFC" transform="translate(509,321)"/>
<path d="M0 0 C3.63 0.33 7.26 0.66 11 1 C11 2.65 11 4.3 11 6 C8.525 5.01 8.525 5.01 6 4 C6 3.34 6 2.68 6 2 C3.03 1.505 3.03 1.505 0 1 C0 0.67 0 0.34 0 0 Z " fill="#E8D6FD" transform="translate(503,291)"/>
<path d="M0 0 C5.12583611 -0.10251672 9.94997778 -0.03590199 15 1 C13 3 13 3 11.0546875 3.1953125 C9.03645833 3.13020833 7.01822917 3.06510417 5 3 C5 2.67 5 2.34 5 2 C3.35 1.67 1.7 1.34 0 1 C0 0.67 0 0.34 0 0 Z " fill="#6B0DF3" transform="translate(350,363)"/>
<path d="M0 0 C-0.33 2.31 -0.66 4.62 -1 7 C-1.99 6.67 -2.98 6.34 -4 6 C-4 6.66 -4 7.32 -4 8 C-4.66 8 -5.32 8 -6 8 C-3.18918919 0 -3.18918919 0 0 0 Z " fill="#761CF6" transform="translate(586,295)"/>
<path d="M0 0 C1.98 0 3.96 0 6 0 C6.33 1.65 6.66 3.3 7 5 C5.68 5.33 4.36 5.66 3 6 C2.814375 5.071875 2.814375 5.071875 2.625 4.125 C2.12802644 1.80879168 2.12802644 1.80879168 0 0 Z " fill="#6F14F9" transform="translate(611,269)"/>
<path d="M0 0 C0.33 0 0.66 0 1 0 C1.33730842 1.43657245 1.66969591 2.87430093 2 4.3125 C2.185625 5.11300781 2.37125 5.91351563 2.5625 6.73828125 C3 9 3 9 3 12 C1.68 11.67 0.36 11.34 -1 11 C-0.67 7.37 -0.34 3.74 0 0 Z " fill="#7C28FC" transform="translate(447,324)"/>
<path d="M0 0 C0.66 0 1.32 0 2 0 C4.1519437 3.22791555 4.20086443 4.28400809 4 8 C2.35 7.67 0.7 7.34 -1 7 C-1 5.68 -1 4.36 -1 3 C-0.34 3 0.32 3 1 3 C0.67 2.01 0.34 1.02 0 0 Z " fill="#7416FA" transform="translate(63,329)"/>
<path d="M0 0 C1.32 0.33 2.64 0.66 4 1 C3.01 2.485 3.01 2.485 2 4 C1.31822584 5.32567199 0.64808564 6.65753688 0 8 C0 7.34 0 6.68 0 6 C-0.66 6 -1.32 6 -2 6 C-2 5.34 -2 4.68 -2 4 C-2.66 3.67 -3.32 3.34 -4 3 C-2.68 2.67 -1.36 2.34 0 2 C0 1.34 0 0.68 0 0 Z " fill="#6F13F3" transform="translate(37,325)"/>
<path d="M0 0 C0.66 0 1.32 0 2 0 C2 0.66 2 1.32 2 2 C2.66 2 3.32 2 4 2 C4 2.66 4 3.32 4 4 C4.99 3.67 5.98 3.34 7 3 C7.99 3.66 8.98 4.32 10 5 C10 5.99 10 6.98 10 8 C5.25 6.125 5.25 6.125 3 5 C3 4.34 3 3.68 3 3 C2.34 3 1.68 3 1 3 C0.67 2.01 0.34 1.02 0 0 Z " fill="#E7D3F9" transform="translate(22,312)"/>
<path d="M0 0 C5.75 0.875 5.75 0.875 8 2 C8 2.66 8 3.32 8 4 C8.99 4.33 9.98 4.66 11 5 C9.68 5.33 8.36 5.66 7 6 C6.67 5.34 6.34 4.68 6 4 C5.34 4 4.68 4 4 4 C4 3.34 4 2.68 4 2 C2.68 2 1.36 2 0 2 C0 1.34 0 0.68 0 0 Z " fill="#EDDFFA" transform="translate(373,273)"/>
<path d="M0 0 C-3.79541663 2.21399303 -7.75629421 3.00980198 -12 4 C-12 3.01 -12 2.02 -12 1 C-9.525 1.495 -9.525 1.495 -7 2 C-7 1.34 -7 0.68 -7 0 C-4.3333581 -1.33332095 -2.83319697 -0.67102033 0 0 Z " fill="#E9DDFA" transform="translate(327,393)"/>
<path d="M0 0 C-1.28965176 1.37562854 -2.62689293 2.70766393 -4 4 C-4.66 4 -5.32 4 -6 4 C-6 3.34 -6 2.68 -6 2 C-7.98 2 -9.96 2 -12 2 C-7.89783794 -0.73477471 -4.73617773 -1.57872591 0 0 Z " fill="#7B22FA" transform="translate(375,361)"/>
<path d="M0 0 C0.33 0.66 0.66 1.32 1 2 C2.98 2 4.96 2 7 2 C7.33 2.66 7.66 3.32 8 4 C7.67 4.66 7.34 5.32 7 6 C5.35 5.67 3.7 5.34 2 5 C2 4.34 2 3.68 2 3 C1.34 3 0.68 3 0 3 C0 2.01 0 1.02 0 0 Z " fill="#6A08F5" transform="translate(461,354)"/>
<path d="M0 0 C2.475 0.495 2.475 0.495 5 1 C5 1.66 5 2.32 5 3 C6.32 3.33 7.64 3.66 9 4 C7.68 4.99 6.36 5.98 5 7 C4.34 6.67 3.68 6.34 3 6 C3 5.01 3 4.02 3 3 C2.01 2.67 1.02 2.34 0 2 C0 1.34 0 0.68 0 0 Z " fill="#7822F9" transform="translate(251,293)"/>
<path d="M0 0 C0.66 0 1.32 0 2 0 C1.34 1.98 0.68 3.96 0 6 C-2.31 5.67 -4.62 5.34 -7 5 C-5.68 4.67 -4.36 4.34 -3 4 C-3 3.34 -3 2.68 -3 2 C-2.01 2 -1.02 2 0 2 C0 1.34 0 0.68 0 0 Z " fill="#E3CEFA" transform="translate(606,288)"/>
<path d="M0 0 C0.90105469 0.11085938 1.80210938 0.22171875 2.73046875 0.3359375 C3.76107422 0.47902344 3.76107422 0.47902344 4.8125 0.625 C4.8125 0.955 4.8125 1.285 4.8125 1.625 C3.02378822 2.01385039 1.23137126 2.38569196 -0.5625 2.75 C-1.56023438 2.95882813 -2.55796875 3.16765625 -3.5859375 3.3828125 C-4.44445313 3.46273438 -5.30296875 3.54265625 -6.1875 3.625 C-6.8475 2.965 -7.5075 2.305 -8.1875 1.625 C-4.73535147 -0.67643236 -3.95270676 -0.51333854 0 0 Z " fill="#6A10F8" transform="translate(43.1875,266.375)"/>
<path d="M0 0 C0 0.99 0 1.98 0 3 C-2.64 3 -5.28 3 -8 3 C-8 3.66 -8 4.32 -8 5 C-8.99 4.67 -9.98 4.34 -11 4 C-7.88789178 0.88789178 -4.34860953 0 0 0 Z " fill="#711BF8" transform="translate(326,394)"/>
<path d="M0 0 C2.125 0.375 2.125 0.375 4 1 C3.1875 2.9375 3.1875 2.9375 2 5 C1.01 5.33 0.02 5.66 -1 6 C-1.625 4.125 -1.625 4.125 -2 2 C-1.34 1.34 -0.68 0.68 0 0 Z " fill="#F2EDF5" transform="translate(77,353)"/>
<path d="M0 0 C0.33 0 0.66 0 1 0 C1 1.98 1 3.96 1 6 C1.99 6 2.98 6 4 6 C4 6.66 4 7.32 4 8 C-0.75 6.125 -0.75 6.125 -3 5 C-3 4.01 -3 3.02 -3 2 C-2.01 2 -1.02 2 0 2 C0 1.34 0 0.68 0 0 Z " fill="#7B27F8" transform="translate(342,331)"/>
<path d="M0 0 C0.92538169 3.70152678 1.08174162 4.63458162 0 8 C-2.97 7.505 -2.97 7.505 -6 7 C-4.02 4.69 -2.04 2.38 0 0 Z " fill="#E8D7F6" transform="translate(265,328)"/>
<path d="M0 0 C0.33 1.32 0.66 2.64 1 4 C2.98 3.67 4.96 3.34 7 3 C6.01 3.33 5.02 3.66 4 4 C4 4.66 4 5.32 4 6 C3.34 6 2.68 6 2 6 C1.67 6.66 1.34 7.32 1 8 C0.34 7.67 -0.32 7.34 -1 7 C-0.67 4.69 -0.34 2.38 0 0 Z " fill="#F3E9F8" transform="translate(468,310)"/>
<path d="M0 0 C0.99 0.33 1.98 0.66 3 1 C3 1.66 3 2.32 3 3 C3.99 3.33 4.98 3.66 6 4 C0.72 3.67 -4.56 3.34 -10 3 C-10 2.67 -10 2.34 -10 2 C-6.7 2 -3.4 2 0 2 C0 1.34 0 0.68 0 0 Z " fill="#8236F4" transform="translate(501,265)"/>
<path d="M0 0 C0.99 0.33 1.98 0.66 3 1 C3 1.66 3 2.32 3 3 C3.66 3.33 4.32 3.66 5 4 C4.67 4.99 4.34 5.98 4 7 C2.0625 6.6875 2.0625 6.6875 0 6 C-1 3 -1 3 0 0 Z " fill="#7113F7" transform="translate(43,295)"/>
<path d="M0 0 C0.33 0.66 0.66 1.32 1 2 C1.66 2 2.32 2 3 2 C2.34 3.98 1.68 5.96 1 8 C0.01 8 -0.98 8 -2 8 C-1.47731534 5.23723823 -0.89130413 2.6739124 0 0 Z " fill="#6D12F8" transform="translate(613,275)"/>
<path d="M0 0 C2.64 0 5.28 0 8 0 C8 0.99 8 1.98 8 3 C5.36 2.67 2.72 2.34 0 2 C0 1.34 0 0.68 0 0 Z " fill="#EDDFF4" transform="translate(227,360)"/>
<path d="M0 0 C0.78375 0.04125 1.5675 0.0825 2.375 0.125 C2.375 0.785 2.375 1.445 2.375 2.125 C-1.09 3.61 -1.09 3.61 -4.625 5.125 C-4.625 1.22254579 -3.95783286 0.18846823 0 0 Z " fill="#EDE3F5" transform="translate(530.625,345.875)"/>
<path d="M0 0 C0.75 1.75 0.75 1.75 1 4 C-0.9375 6.25 -0.9375 6.25 -3 8 C-3.33 7.01 -3.66 6.02 -4 5 C-2.0625 2.3125 -2.0625 2.3125 0 0 Z " fill="#F8F1F7" transform="translate(536,337)"/>
<path d="M0 0 C0.66 0.33 1.32 0.66 2 1 C2 1.99 2 2.98 2 4 C-1.63 4 -5.26 4 -9 4 C-6.00084818 2.50042409 -3.16379181 1.08234983 0 0 Z " fill="#DBC0FD" transform="translate(257,336)"/>
<path d="M0 0 C0.33 0 0.66 0 1 0 C1.66 2.31 2.32 4.62 3 7 C2.01 7.66 1.02 8.32 0 9 C-0.66 6.69 -1.32 4.38 -2 2 C-1.34 1.34 -0.68 0.68 0 0 Z " fill="#7418FC" transform="translate(88,284)"/>
<path d="M0 0 C2.88575819 0.39803561 3.82189513 0.79009069 5.75 3.0625 C6.1625 3.701875 6.575 4.34125 7 5 C6.67 5.66 6.34 6.32 6 7 C5.34 7 4.68 7 4 7 C3.67 5.68 3.34 4.36 3 3 C2.01 3 1.02 3 0 3 C0 2.01 0 1.02 0 0 Z " fill="#E8D7FB" transform="translate(265,272)"/>
<path d="M0 0 C2.475 0.99 2.475 0.99 5 2 C2.61426621 3.89213369 0.92824652 5.02391783 -2 6 C-2 5.01 -2 4.02 -2 3 C-1.34 3 -0.68 3 0 3 C0 2.01 0 1.02 0 0 Z " fill="#6C14F4" transform="translate(136,267)"/>
<path d="M0 0 C0.33 0.66 0.66 1.32 1 2 C-2.47823115 3.15941038 -4.45895578 2.70820884 -8 2 C-7 0 -7 0 -5.125 -0.6875 C-3 -1 -3 -1 0 0 Z " fill="#EEE3FB" transform="translate(34,333)"/>
<path d="M0 0 C-0.66 1.32 -1.32 2.64 -2 4 C-3.65 3.67 -5.3 3.34 -7 3 C-7.33 3.66 -7.66 4.32 -8 5 C-8.66 4.34 -9.32 3.68 -10 3 C-8.70990357 2.49596232 -7.41786211 1.99690074 -6.125 1.5 C-5.04605469 1.08234375 -5.04605469 1.08234375 -3.9453125 0.65625 C-2 0 -2 0 0 0 Z " fill="#E7D9FA" transform="translate(493,306)"/>
<path d="M0 0 C0.66 0.33 1.32 0.66 2 1 C1.835 1.7425 1.67 2.485 1.5 3.25 C0.88074304 6.19006578 0.88074304 6.19006578 1 10 C-1 8 -1 8 -1.1875 5 C-1 2 -1 2 0 0 Z " fill="#F9F2F8" transform="translate(375,296)"/>
<path d="M0 0 C2 2 2 2 2 6 C1.34 6 0.68 6 0 6 C-0.33 6.66 -0.66 7.32 -1 8 C-1.625 5.125 -1.625 5.125 -2 2 C-1.34 1.34 -0.68 0.68 0 0 Z " fill="#6A0CF8" transform="translate(185,282)"/>
<path d="M0 0 C3 1 3 1 6 3 C4.02 3.66 2.04 4.32 0 5 C-0.5625 3.0625 -0.5625 3.0625 -1 1 C-0.67 0.67 -0.34 0.34 0 0 Z " fill="#7519FA" transform="translate(31,268)"/>
<path d="M0 0 C0.99 0.33 1.98 0.66 3 1 C2.67 1.99 2.34 2.98 2 4 C2.66 4.66 3.32 5.32 4 6 C1.03 5.505 1.03 5.505 -2 5 C-2 3.68 -2 2.36 -2 1 C-1.34 0.67 -0.68 0.34 0 0 Z " fill="#6C0CF6" transform="translate(477,264)"/>
<path d="M0 0 C0.33 0 0.66 0 1 0 C1.05416188 1.60379341 1.09286638 3.20811406 1.125 4.8125 C1.14820313 5.70582031 1.17140625 6.59914062 1.1953125 7.51953125 C1 10 1 10 -1 13 C-1.33 10.69 -1.66 8.38 -2 6 C-1.67 6 -1.34 6 -1 6 C-0.67 4.02 -0.34 2.04 0 0 Z " fill="#F0E6FC" transform="translate(439,240)"/>
<path d="M0 0 C0.33 0.66 0.66 1.32 1 2 C-1.40436026 5.60654039 -2.94679607 5.85452932 -7 7 C-6.34 6.01 -5.68 5.02 -5 4 C-4.34 4 -3.68 4 -3 4 C-2.67 3.01 -2.34 2.02 -2 1 C-1.34 0.67 -0.68 0.34 0 0 Z " fill="#782AF6" transform="translate(86,351)"/>
<path d="M0 0 C1.65 1.65 3.3 3.3 5 5 C2 7 2 7 0 7 C0 4.69 0 2.38 0 0 Z " fill="#721AF9" transform="translate(20,349)"/>
<path d="M0 0 C1.32 1.32 2.64 2.64 4 4 C3.01 4.495 3.01 4.495 2 5 C2.33 5.99 2.66 6.98 3 8 C1.68 7.34 0.36 6.68 -1 6 C-1 5.34 -1 4.68 -1 4 C-0.34 4 0.32 4 1 4 C0.67 2.68 0.34 1.36 0 0 Z " fill="#7B22FC" transform="translate(205,344)"/>
<path d="M0 0 C0.33 0 0.66 0 1 0 C1.76173392 4.3164922 2.16063604 7.74433453 1 12 C0.34 11.34 -0.32 10.68 -1 10 C-0.9765625 7.6171875 -0.9765625 7.6171875 -0.625 4.875 C-0.51414062 3.96492188 -0.40328125 3.05484375 -0.2890625 2.1171875 C-0.19367187 1.41851562 -0.09828125 0.71984375 0 0 Z " fill="#7512FC" transform="translate(15,337)"/>
<path d="M0 0 C0.99 0.33 1.98 0.66 3 1 C3.8125 2.8125 3.8125 2.8125 4 5 C3.34 6.32 2.68 7.64 2 9 C1.34 6.03 0.68 3.06 0 0 Z " fill="#E3D0F8" transform="translate(197,325)"/>
<path d="M0 0 C0.66 1.32 1.32 2.64 2 4 C1.34 4 0.68 4 0 4 C0 4.66 0 5.32 0 6 C-0.66 6 -1.32 6 -2 6 C-2 5.34 -2 4.68 -2 4 C-2.66 3.67 -3.32 3.34 -4 3 C-2.68 2.01 -1.36 1.02 0 0 Z " fill="#6E16F5" transform="translate(18,306)"/>
<path d="M0 0 C2.64 0 5.28 0 8 0 C8.33 1.65 8.66 3.3 9 5 C4.545 3.02 4.545 3.02 0 1 C0 0.67 0 0.34 0 0 Z " fill="#E0C5FA" transform="translate(56,288)"/>
<path d="M0 0 C0.99 0 1.98 0 3 0 C2.67 3.96 2.34 7.92 2 12 C1.67 12 1.34 12 1 12 C0.67 8.04 0.34 4.08 0 0 Z " fill="#FAFCED" transform="translate(179,284)"/>
<path d="M0 0 C-0.9977758 2.99332739 -1.7522025 3.94766315 -4 6 C-5.32 5.34 -6.64 4.68 -8 4 C-6.68 3.67 -5.36 3.34 -4 3 C-4 2.34 -4 1.68 -4 1 C-2 0 -2 0 0 0 Z " fill="#E6D2FA" transform="translate(471,274)"/>
<path d="M0 0 C0 1.32 0 2.64 0 4 C-0.99 4.33 -1.98 4.66 -3 5 C-3 4.34 -3 3.68 -3 3 C-3.99 3.33 -4.98 3.66 -6 4 C-6 3.34 -6 2.68 -6 2 C-3 0 -3 0 0 0 Z " fill="#7111F9" transform="translate(467,273)"/>
<path d="M0 0 C0.33 1.65 0.66 3.3 1 5 C-1.97 4.505 -1.97 4.505 -5 4 C-5 3.01 -5 2.02 -5 1 C-2 0 -2 0 0 0 Z " fill="#6B0BF5" transform="translate(538,312)"/>
<path d="M0 0 C0.99 0 1.98 0 3 0 C2.34 2.64 1.68 5.28 1 8 C-1 5 -1 5 -0.625 2.3125 C-0.41875 1.549375 -0.2125 0.78625 0 0 Z " fill="#F8F3F7" transform="translate(220,304)"/>
<path d="M0 0 C0.66 0 1.32 0 2 0 C2.33 2.64 2.66 5.28 3 8 C2.34 8 1.68 8 1 8 C0.67 5.36 0.34 2.72 0 0 Z " fill="#F3E8F2" transform="translate(395,296)"/>
<path d="M0 0 C2.475 0.495 2.475 0.495 5 1 C5.33 1.99 5.66 2.98 6 4 C4.68 4.33 3.36 4.66 2 5 C1.34 3.35 0.68 1.7 0 0 Z " fill="#792CF7" transform="translate(508,295)"/>
<path d="M0 0 C2.475 0.495 2.475 0.495 5 1 C5.33 2.32 5.66 3.64 6 5 C5.01 5.66 4.02 6.32 3 7 C2.67 6.01 2.34 5.02 2 4 C1.34 3.67 0.68 3.34 0 3 C0 2.01 0 1.02 0 0 Z " fill="#F3EAFE" transform="translate(284,295)"/>
<path d="M0 0 C-0.99 0.495 -0.99 0.495 -2 1 C-1.67 1.66 -1.34 2.32 -1 3 C-3.97 2.505 -3.97 2.505 -7 2 C-7 1.34 -7 0.68 -7 0 C-3.86650268 -1.04449911 -3.01031744 -0.93423645 0 0 Z " fill="#7923FE" transform="translate(52,289)"/>
<path d="M0 0 C0.66 0 1.32 0 2 0 C2.33 1.32 2.66 2.64 3 4 C1.02 4.99 1.02 4.99 -1 6 C-1.042721 4.33388095 -1.04063832 2.66617115 -1 1 C-0.67 0.67 -0.34 0.34 0 0 Z " fill="#6B0FF6" transform="translate(329,272)"/>
</svg>
